<?xml version="1.0" standalone="no"?><!DOCTYPE svg PUBLIC "-//W3C//DTD SVG 1.1//EN" "http://www.w3.org/Graphics/SVG/1.1/DTD/svg11.dtd"><svg t="1664696512701" class="icon" viewBox="0 0 1024 1024" version="1.1" xmlns="http://www.w3.org/2000/svg" p-id="937" xmlns:xlink="http://www.w3.org/1999/xlink" width="200" height="200"><path d="M528.2816 861.4912c61.1328 0 94.2592 14.9504 124.8256 37.2736 82.6368 61.184 136.3456 16.5888 181.8112-26.5216 96.7168-97.5872 47.104-181.1968-53.7088-315.2896-122.2656-180.48-252.928-178.2784-252.928-178.2784h-8.6528s-131.84-1.0752-252.928 178.2784C165.888 690.9952 116.2752 774.656 212.992 872.2432c45.5168 43.1104 99.1744 87.7568 181.8112 26.5216 30.5664-22.3232 63.6416-37.2736 124.8256-37.2736h8.6528zM281.3952 192.6656s-46.3872 180.736 93.4912 163.3792c139.8784-17.3568 72.8064-156.4672 53.5552-183.7056-14.0288-19.8144-53.5552-66.7648-84.224-63.1808S287.0784 164.1472 281.3952 192.6656zM85.0944 472.4736s21.0432 123.5456 114.1248 59.7504 1.792-122.5216-20.3776-131.6864c-16.1792-6.7072-58.88-20.1216-79.36-6.1952s-18.8928 56.9344-14.3872 78.1312z m681.7792-279.808s46.3872 180.736-93.4912 163.3792c-139.8784-17.3568-72.8064-156.4672-53.5552-183.7056 14.0288-19.8144 53.5552-66.7648 84.224-63.1808s57.088 54.9888 62.8224 83.5072z m196.3008 279.808s-21.0432 123.5456-114.1248 59.7504-1.792-122.5216 20.3776-131.6864c16.128-6.7072 58.88-20.1216 79.36-6.1952s18.8928 56.9344 14.3872 78.1312z" fill="#d4237a" p-id="938"></path></svg>